<mxfile host="app.diagrams.net" modified="2023-05-25T06:29:27.614Z" agent="Mozilla/5.0 (Windows NT 10.0; Win64; x64) AppleWebKit/537.36 (KHTML, like Gecko) Chrome/113.0.0.0 Safari/537.36" version="21.3.2" etag="4NruFb7hevlN4_ITb6by" type="github">
  <diagram name="第 1 页" id="7AgpghjspiulDgtjg9ZI">
    <mxGraphModel>
      <root>
        <mxCell id="0" />
        <mxCell id="1" parent="0" />
      </root>
    </mxGraphModel>
  </diagram>
</mxfile>
